<?xml version="1.0" encoding="UTF-8" standalone="no"?>
<!DOCTYPE svg PUBLIC "-//W3C//DTD SVG 1.1//EN" "http://www.w3.org/Graphics/SVG/1.1/DTD/svg11.dtd">
<svg width="100%" height="100%" viewBox="0 0 173 122" version="1.1" xmlns="http://www.w3.org/2000/svg" xmlns:xlink="http://www.w3.org/1999/xlink" xml:space="preserve" style="fill-rule:evenodd;clip-rule:evenodd;stroke-linejoin:round;stroke-miterlimit:1.41421;">
    <g transform="matrix(1,0,0,1,-1,0)">
        <g transform="matrix(1,0,0,1,1,0)">
            <path d="M67.472,45.615C61.252,71.186 53.946,92.501 34.211,112.738L31.063,114.931C27.854,115.078 25.971,115.173 25.971,115.173C23.436,114.961 5.653,121 5.653,121L0,119.527C0,117.386 3.319,111.553 6.655,107.629C6.655,107.629 5.568,76.367 6.655,74.251L11.769,74.251C22.511,20.472 48.012,12.85 58,7.12C58.941,6.577 65,15.443 65,15.443L68.642,11.302C68.642,8 68.642,4.976 68.642,4.976C68.642,3.529 69.755,2.025 71.127,1.6C71.127,1.6 74,0 87.5,0C102,0 102.541,1.181 102.541,1.181C103.924,1.556 105.056,3.161 105.125,4.594C105.125,4.594 105.358,9 105.358,11.302L109.692,15.443C109.692,13.443 115.301,6.577 116.242,7.12C126.94,13.257 136.822,22.442 145.381,34.405C155.138,48.036 159.489,66.468 161.051,79.561L166.345,79.561L166.345,107.629C169.681,111.553 173,117.386 173,119.527L167.347,121C167.347,121 149.564,114.961 147.029,115.173C147.029,115.173 145.409,115.091 142.614,114.962L141.875,114.446C121.021,93.865 113.432,72.255 107.068,46.245C110.164,42.142 112,37.035 112,31.5C112,17.969 101.031,7 87.5,7C73.969,7 63,17.969 63,31.5C63,36.756 64.655,41.625 67.472,45.615ZM65.194,91.154L59.194,95.334L59.194,85.413C61.617,80.423 63.581,75.465 65.194,70.658L65.194,91.154ZM66.194,90.458L66.194,67.555C67.931,61.937 69.205,56.571 70.194,51.656L70.194,87.671L66.194,90.458ZM58.194,96.031L51.194,100.907L51.194,99.265C53.859,95.348 56.175,91.38 58.194,87.422L58.194,96.031ZM50.194,101.604L48.898,102.507C49.338,101.909 49.77,101.309 50.194,100.709L50.194,101.604ZM110.194,92.351L110.194,73.53C111.837,78.082 113.808,82.745 116.194,87.422L116.194,96.535L110.194,92.351ZM109.194,91.653L104.194,88.166L104.194,51.656C105.363,57.469 106.932,63.914 109.194,70.658L109.194,91.653ZM117.194,97.233L117.194,89.337C119.481,93.618 122.125,97.898 125.194,102.103L125.194,102.812L117.194,97.233ZM126.194,103.51L126.194,103.451C126.225,103.492 126.257,103.534 126.288,103.576L126.194,103.51Z" style="fill:rgb(255,188,0);"/>
            <path d="M82.962,53C79.669,53 77,55.673 77,58.957L77,86L98,86L98,58.957C98,55.667 95.34,53 92.038,53L82.962,53Z" style="fill:rgb(249,184,0);"/>
            <path d="M145.056,118.237C157.868,119.774 167,121.1 167,121.1L173,119.6C173,119.6 165.616,117.309 149.441,115.09C146.92,114.744 144.221,114.416 141.402,114.107L145.056,118.237ZM28.335,117.943C14.951,119.556 5.331,121 5.331,121L0,119.6C0,119.6 3.912,117.218 20.309,115.09C24.169,114.589 28.444,114.128 32.952,113.71L28.335,117.943Z" style="fill:rgb(166,133,0);"/>
            <path d="M85.93,105.2L86.207,98.8L90.043,98.8L90.32,105.2L85.93,105.2ZM85.826,107.6L85.375,118L90.875,118L90.424,107.6L85.826,107.6ZM86.276,97.2L86.588,90L89.662,90L89.974,97.2L86.276,97.2ZM86.623,89.2L86.762,86L89.488,86L89.627,89.2L86.623,89.2Z" style="fill:url(#_Linear1);"/>
            <path id="digdug_logo_stacked.-d" d="M87.5,48C97.165,48 105,40.165 105,30.5C105,20.835 97.165,13 87.5,13C77.835,13 70,20.835 70,30.5C70,40.165 77.835,48 87.5,48Z" style="fill:url(#_Radial2);"/>
            <path id="digdug_logo_stacked.-d1" d="M87.5,48C97.165,48 105,40.165 105,30.5C105,20.835 97.165,13 87.5,13C77.835,13 70,20.835 70,30.5C70,40.165 77.835,48 87.5,48Z" style="fill:none;"/>
        </g>
    </g>
    <defs>
        <linearGradient id="_Linear1" x1="0" y1="0" x2="1" y2="0" gradientUnits="userSpaceOnUse" gradientTransform="matrix(2.97963e-15,-48.6611,48.6611,2.97963e-15,88.125,118)"><stop offset="0" style="stop-color:rgb(130,130,130);stop-opacity:0.376"/><stop offset="1" style="stop-color:black;stop-opacity:0"/></linearGradient>
        <radialGradient id="_Radial2" cx="0" cy="0" r="1" gradientUnits="userSpaceOnUse" gradientTransform="matrix(35,0,0,35,86.7139,30.5)"><stop offset="0" style="stop-color:rgb(250,244,221);stop-opacity:1"/><stop offset="1" style="stop-color:rgb(249,184,0);stop-opacity:1"/></radialGradient>
    </defs>
</svg>
