<?xml version="1.0" encoding="UTF-8" standalone="no"?>
<!DOCTYPE svg PUBLIC "-//W3C//DTD SVG 1.1//EN" "http://www.w3.org/Graphics/SVG/1.1/DTD/svg11.dtd">
<svg width="100%" height="100%" viewBox="0 0 196 165" version="1.1" xmlns="http://www.w3.org/2000/svg" xmlns:xlink="http://www.w3.org/1999/xlink" xml:space="preserve" style="fill-rule:evenodd;clip-rule:evenodd;stroke-linejoin:round;stroke-miterlimit:1.41421;">
    <g transform="matrix(1,0,0,1,-0.848065,-0.814114)">
        <g transform="matrix(1,0,0,1,0,-7)">
            <g transform="matrix(0.999391,-0.0348995,0.0348995,0.999391,0.0574305,7.42019)">
                <path d="M66.045,121.125C76.003,131.523 98.522,135.476 103.804,136.691C112.37,138.661 136.052,140.37 168.169,162.134C171.156,164.158 177.202,167.323 179.459,167.257C184.393,167.813 187.369,157.233 188.356,152.573C151.719,147.409 103.697,131.389 72.644,114.116C41.592,96.843 47.39,93.458 47.39,105.698C47.39,117.767 59.853,114.661 66.045,121.125Z" style="fill:url(#_Linear1);"/>
                <path d="M179.338,85.865C173.047,56.038 152.696,38.603 121.553,38.409C99.689,38.603 89.661,49.676 87.225,51.42C86.999,51.372 86.753,51.304 86.481,51.215C56.746,40.383 40.598,34.188 10.863,23.356C7.813,22.175 4.96,20.667 3.486,16.864C2.532,12.85 1.578,8.832 0.623,4.816C0.922,1.111 2.611,-0.192 5.689,0.905C38.32,11.674 67.499,25.724 99.689,36.912C104.298,35.638 108.69,34.939 112.606,34.582C120.797,33.837 134.924,33.707 146.852,38.912C165.823,46.267 178.466,62.347 183.252,85.04L183.842,87.833L181.015,87.433C167.753,85.556 158.141,82.421 150.92,78.169C147.89,76.385 145.507,74.567 142.961,72.264C142.405,71.761 140.71,70.182 140.418,69.916C139.605,69.179 139.018,68.698 138.48,68.341C136.43,66.98 134.45,67.26 129.555,70.499C129.386,70.952 129.245,71.613 129.154,72.439C128.949,74.314 129.02,76.826 129.389,79.673C130.268,86.458 132.657,94.177 136.427,101.474C146.481,120.934 164.228,134.481 190.032,138.119L191.753,138.361L191.753,140.099C191.753,146.184 190.246,154.925 187.868,161.06C184.556,169.601 179.484,173.48 173.385,169.347C171.494,168.066 169.573,166.818 167.623,165.605C162.207,162.232 156.64,159.155 150.958,156.354C148.106,155.196 145.179,154.037 142.193,152.728C131.279,147.944 118.549,143.959 102.717,139.253C102.291,139.153 101.86,139.053 101.405,138.948C100.985,138.851 99.763,138.571 99.641,138.543C91.513,136.674 81.627,133.35 73.009,129.025C48.839,118.537 44.79,112.162 45.982,108.494C68.765,124.367 89.296,130.911 108.506,136.551C109.149,136.716 109.798,136.884 110.457,137.059C115.724,138.451 121.112,140.067 126.701,141.985C127.009,142.091 127.317,142.197 127.625,142.304C136.224,145.102 144.604,148.326 152.86,152.832C158.611,155.672 164.247,158.791 169.738,162.209C171.731,163.45 173.695,164.725 175.629,166.036C178.86,168.225 181.616,166.117 184.138,159.613C186.331,153.96 187.753,145.707 187.753,140.099L189.474,142.079C162.331,138.253 143.5,123.879 132.873,103.31C125.09,88.244 122.698,69.786 127.491,66.841C133.543,63.122 137.095,62.621 140.692,65.008C141.432,65.499 142.157,66.093 143.107,66.955C143.426,67.244 145.117,68.82 145.645,69.298C148.004,71.431 150.177,73.09 152.95,74.722C159.692,78.692 168.807,81.665 181.576,83.472L179.338,85.865ZM68.556,74.265C51.684,68.331 36.045,62.799 18.139,56.529C15.394,55.739 12.764,54.595 10.939,50.97C9.982,48.32 9.027,45.669 8.07,43.019C8.059,39.407 9.475,38.209 12.32,39.426C34.017,47.013 54.494,54.374 75.992,61.924C72.937,65.684 70.42,69.819 68.556,74.265ZM64.856,93.413C54.327,90.195 43.798,86.976 33.269,83.758C30.785,82.95 28.798,81.525 27.309,79.481C25.743,77.217 24.178,74.953 22.612,72.689C22.608,69.275 23.642,68.149 25.714,69.31L65.974,82.391C65.193,85.926 64.804,89.608 64.856,93.413L64.856,93.413ZM67.197,112.005C63.361,110.637 59.525,109.269 55.689,107.901C53.961,107.34 52.348,106.425 50.85,105.158C50.06,103.731 49.271,102.305 48.48,100.877C48.654,98.69 49.563,97.913 51.208,98.546L65.747,103.27C66.13,106.17 66.6,109.131 67.197,112.005Z" style="fill:rgb(43,123,105);fill-rule:nonzero;"/>
                <path d="M128.286,69.027C135.8,63.576 138.711,64.905 138.711,64.905C146.763,70.884 149.171,80.641 182.319,85.075C184.877,86.33 195.32,118.793 188.819,139.762C144.81,134.263 131.384,95.246 131.384,95.246C131.384,95.246 123.925,73.024 128.286,69.027ZM141.492,68.645C140.183,67.381 139.184,66.502 138.256,65.811C137.744,65.699 136.91,65.747 135.709,66.11C133.871,66.667 131.601,67.857 128.961,69.764C127.599,71.013 127.593,75.397 128.808,81.64C129.162,83.455 129.606,85.377 130.119,87.359C130.604,89.23 131.123,91.052 131.642,92.752C131.824,93.347 131.993,93.883 132.144,94.353C132.234,94.633 132.298,94.828 132.329,94.921C132.356,94.999 132.414,95.159 132.505,95.396C132.659,95.798 132.848,96.266 133.074,96.794C133.721,98.311 134.531,100.004 135.512,101.829C138.319,107.05 141.936,112.273 146.442,117.146C157.184,128.762 171.202,136.553 188.943,138.77L187.863,139.466C190.7,130.317 190.487,118.089 187.985,105.216C187.005,100.177 185.717,95.352 184.384,91.53C183.281,88.367 182.17,86.116 181.879,85.973L182.187,86.066C165.023,83.77 154.966,80.047 147.809,74.442C146.648,73.533 145.569,72.586 144.378,71.456C143.725,70.836 141.671,68.819 141.492,68.645Z" style="fill:rgb(43,123,105);fill-rule:nonzero;"/>
                <path d="M181.593,85.864C181.881,86.005 182.986,88.244 184.083,91.388C185.409,95.189 186.69,99.989 187.665,105.001C190.154,117.804 190.366,129.965 187.544,139.064L188.623,138.368C170.976,136.163 157.031,128.414 146.345,116.862C141.863,112.015 138.265,106.82 135.472,101.627C134.496,99.812 133.691,98.129 133.047,96.62C132.822,96.095 132.634,95.629 132.481,95.23C132.391,94.994 132.333,94.835 132.306,94.758C132.275,94.665 132.212,94.471 132.122,94.192C131.971,93.726 131.804,93.192 131.623,92.601C131.106,90.91 130.589,89.097 130.107,87.236C129.597,85.265 129.155,83.354 128.804,81.548C127.595,75.341 127.601,70.982 128.954,69.741C131.579,67.846 133.837,66.661 135.665,66.108C136.859,65.747 137.688,65.7 138.197,65.811C139.118,66.497 140.111,67.371 141.413,68.628C141.592,68.801 143.635,70.808 144.284,71.424C145.47,72.549 146.544,73.49 147.698,74.394C154.819,79.969 164.825,83.674 181.901,85.957L181.593,85.864Z" style="fill:url(#_Linear2);fill-rule:nonzero;"/>
                <path d="M135.748,78.776C137.681,78.776 139.248,77.209 139.248,75.276C139.248,73.343 137.681,71.776 135.748,71.776C133.815,71.776 132.248,73.343 132.248,75.276C132.248,77.209 133.815,78.776 135.748,78.776Z" style="fill:rgb(107,107,107);"/>
            </g>
        </g>
    </g>
    <defs>
        <linearGradient id="_Linear1" x1="0" y1="0" x2="1" y2="0" gradientUnits="userSpaceOnUse" gradientTransform="matrix(-56.261,-18.0443,18.0443,-56.261,132.007,140.446)"><stop offset="0" style="stop-color:rgb(220,220,220);stop-opacity:1"/><stop offset="1" style="stop-color:white;stop-opacity:0"/></linearGradient>
        <linearGradient id="_Linear2" x1="0" y1="0" x2="1" y2="0" gradientUnits="userSpaceOnUse" gradientTransform="matrix(50.7059,33.96,-33.96,50.7059,146.727,91.3196)"><stop offset="0" style="stop-color:rgb(52,52,52);stop-opacity:1"/><stop offset="1" style="stop-color:rgb(26,73,62);stop-opacity:1"/></linearGradient>
    </defs>
</svg>
