<?xml version="1.0" encoding="utf-8"?>
<!-- Generated by IcoMoon.io -->
<!DOCTYPE svg PUBLIC "-//W3C//DTD SVG 1.1//EN" "http://www.w3.org/Graphics/SVG/1.1/DTD/svg11.dtd">
<svg version="1.1" xmlns="http://www.w3.org/2000/svg" xmlns:xlink="http://www.w3.org/1999/xlink" width="32" height="32" viewBox="0 0 32 32">
<g id="icomoon-ignore">
</g>
<path d="M25.039 8.781l0.902-0.902 0.914 0.914 1.131-1.131-2.582-2.582-1.131 1.131 0.914 0.914-0.902 0.902c-1.999-1.833-4.607-3.008-7.485-3.195v-2.161h-1.599v2.161c-6.399 0.412-11.462 5.73-11.462 12.234 0 6.772 5.49 12.262 12.262 12.262s12.262-5.489 12.262-12.262c0-3.195-1.222-6.103-3.223-8.285zM16 28.262c-6.173 0-11.196-5.023-11.196-11.196s5.023-11.196 11.196-11.196 11.196 5.022 11.196 11.196c0 6.173-5.023 11.196-11.196 11.196z" fill="#000000"></path>
<path d="M16.533 15.565v-7.029h-1.066v7.029c-0.62 0.221-1.066 0.806-1.066 1.502s0.447 1.281 1.066 1.502v2.23h1.066v-2.23c0.62-0.221 1.066-0.806 1.066-1.502s-0.447-1.281-1.066-1.502z" fill="#000000"></path>
</svg>
