<?xml version="1.0" encoding="UTF-8" standalone="no"?>
<!DOCTYPE svg PUBLIC "-//W3C//DTD SVG 1.1//EN" "http://www.w3.org/Graphics/SVG/1.1/DTD/svg11.dtd">
<svg width="100%" height="100%" viewBox="0 0 104 105" version="1.1" xmlns="http://www.w3.org/2000/svg" xmlns:xlink="http://www.w3.org/1999/xlink" xml:space="preserve" style="fill-rule:evenodd;clip-rule:evenodd;stroke-linejoin:round;stroke-miterlimit:1.41421;">
    <g id="Layer_1" transform="matrix(1,0,0,1,-30.5,-34.982)">
        <path d="M96,98.6L94.7,97.8C83.8,92.8 74.1,97.8 74.1,97.8L72.7,99L72.7,101.2L74.1,100.8C74.1,100.8 83.8,95.8 94.7,100.8L96.4,101.6L96,98.6Z" style="fill:rgb(43,135,101);fill-rule:nonzero;"/>
        <path d="M64.8,97.5C64.8,102.691 60.591,106.9 55.4,106.9C50.209,106.9 46,102.691 46,97.5C46,92.309 50.209,88.1 55.4,88.1C60.591,88.1 64.8,92.309 64.8,97.5Z" style="fill:rgb(43,135,101);fill-rule:nonzero;"/>
        <path d="M103.9,82.5C106.6,80.9 109.8,80 113.1,80C117.9,80 122.2,81.8 125.5,84.8C125.6,84.8 125.8,84.9 125.9,84.9C125.9,84.9 148.9,49.5 119.4,63.7C119.4,63.7 86.4,18 52.6,41.9C52.6,41.9 57.8,44.7 59.6,47.2C59.6,47.2 34.7,48.6 30.5,60.9C30.5,60.9 37.8,60.1 37.7,62C37.7,62 28.1,63.4 39.9,88C43.2,83 48.9,79.7 55.3,79.7C60.9,79.7 65.9,82.2 69.3,86.1C73.9,85.3 79.4,83.6 83,80.3C83.1,80.3 110.3,74.5 103.9,82.5Z" style="fill:rgb(43,135,101);fill-rule:nonzero;"/>
        <path d="M55.4,79C45.2,79 36.9,87.3 36.9,97.5C36.9,107.7 45.2,116 55.4,116C65.6,116 73.9,107.7 73.9,97.5C73.9,87.3 65.6,79 55.4,79ZM55.1,112.1C47.1,112.1 40.5,105.6 40.5,97.5C40.5,89.5 47,82.9 55.1,82.9C63.1,82.9 69.7,89.4 69.7,97.5C69.7,105.6 63.2,112.1 55.1,112.1Z" style="fill:rgb(43,135,101);fill-rule:nonzero;"/>
        <path d="M113.1,79.3C102.9,79.3 94.6,87.6 94.6,97.8C94.6,108 102.9,116.3 113.1,116.3C123.3,116.3 131.6,108 131.6,97.8C131.6,87.6 123.3,79.3 113.1,79.3ZM112.9,112.4C104.9,112.4 98.3,105.9 98.3,97.8C98.3,89.8 104.8,83.2 112.9,83.2C121,83.2 127.5,89.7 127.5,97.8C127.4,105.9 120.9,112.4 112.9,112.4Z" style="fill:rgb(43,135,101);fill-rule:nonzero;"/>
        <path d="M122.5,97.8C122.5,102.991 118.291,107.2 113.1,107.2C107.909,107.2 103.7,102.991 103.7,97.8C103.7,92.609 107.909,88.4 113.1,88.4C118.291,88.4 122.5,92.609 122.5,97.8Z" style="fill:rgb(43,135,101);fill-rule:nonzero;"/>
        <path d="M102,112.5L119.4,113.9C119.4,113.9 132.4,133.7 82.4,139.4L69.6,137.4C69.6,137.3 109.9,127.7 102,112.5Z" style="fill:rgb(43,135,101);fill-rule:nonzero;"/>
    </g>
</svg>
